<svg id="Layer_1" enable-background="new 0 0 510 510" height="512" viewBox="0 0 510 510" width="512" xmlns="http://www.w3.org/2000/svg"><g id="XMLID_4042_"><g id="XMLID_4266_"><path id="XMLID_4270_" d="m150 385c-14.981 0-30.019 0-45 0l-15-15 15-15h45z" fill="#ff5c5c"/></g><path id="XMLID_4263_" d="m105 429.693c0-20.048 0-94.462 0-124.25l6-10-6-15.25-37.5-15-37.5 15v225h135c0-21.167 0-39.333 0-60.5-20.968-5.242-39.032-9.758-60-15z" fill="#283366"/><path id="XMLID_4260_" d="m105 130.193c-28.278 0-88.527 0-105 0v75l52.5 15 52.5-15 15-37.5z" fill="#ffc649"/><path id="XMLID_4257_" d="m0 205.193v75h105l15-37.5-15-37.5c-28.278 0-88.527 0-105 0z" fill="#ffa951"/><path id="XMLID_4254_" d="m360 205.193 15-87.336-15-87.335c-7.193 2.055-247.807 70.802-255 72.857v101.814l127.5 15z" fill="#ffdc75"/><path id="XMLID_4251_" d="m105 205.193v100.814c7.193 2.055 247.807 70.802 255 72.857l15-86.836-15-86.835c-7.193 0-247.807 0-255 0z" fill="#ffc649"/><path id="XMLID_4248_" d="m285 145.193v60l15 15 15-15c0-7.259 0-52.693 0-60-10.492 0-19.508 0-30 0z" fill="#4d4d8c"/><path id="XMLID_4242_" d="m285 265.193h30c0-7.259 0-52.693 0-60-10.492 0-19.508 0-30 0z" fill="#283366"/><path id="XMLID_4239_" d="m450 129.693-15 37.75 15 37.75 30 15 30-15c0-14.458 0-31.042 0-45.5-16.262-8.13-50.424-25.212-60-30z" fill="#ff8659"/><path id="XMLID_4209_" d="m450 279.693c16.262-8.13 50.424-25.212 60-30 0-14.153 0-30.347 0-44.5-7.26 0-52.693 0-60 0l-15 37.25z" fill="#ff5c5c"/><path id="XMLID_4131_" d="m450 205.193c0-20.97 0-176.093 0-200.386-10.877 3.108-79.051 22.586-90 25.714v174.671l45 15z" fill="#ffc649"/><path id="XMLID_4116_" d="m360 205.193v173.671c10.877 3.108 79.051 22.586 90 25.714 0-3.327 0-187.608 0-199.386-10.889.001-79.039.001-90 .001z" fill="#ffa951"/></g></svg>