<svg id="Capa_1" enable-background="new 0 0 512 512" height="512" viewBox="0 0 512 512" width="512" xmlns="http://www.w3.org/2000/svg" xmlns:xlink="http://www.w3.org/1999/xlink"><linearGradient id="SVGID_1_" gradientUnits="userSpaceOnUse" x1="279" x2="279" y1="512" y2="30"><stop offset="0" stop-color="#fd5900"/><stop offset="1" stop-color="#ffde00"/></linearGradient><linearGradient id="SVGID_2_" gradientUnits="userSpaceOnUse" x1="226" x2="226" y1="450" y2="0"><stop offset="0" stop-color="#ffe59a"/><stop offset="1" stop-color="#ffffd5"/></linearGradient><g><g><g><path d="m121 300h-60c-8.291 0-15 6.709-15 15v152c0 24.814 20.186 45 45 45s45-20.186 45-45v-152c0-8.291-6.709-15-15-15zm316-150v-120c-3.6 0-6.899 1.5-9.902 3.9-1.498 1.199-132.598 116.1-260.098 116.1-8.401 0-15 6.599-15 15v120c0 8.399 6.599 15 15 15 127.5 0 258.6 114.899 260.098 116.1 2.703 2.699 6.302 3.9 9.902 3.9v-120c41.367 0 75-33.647 75-75s-33.633-75-75-75z" fill="url(#SVGID_1_)"/></g></g><g><g><path d="m167 120h-152c-8.291 0-15 6.709-15 15v180c0 8.291 6.709 15 15 15h152c8.291 0 15-6.709 15-15v-180c0-8.291-6.709-15-15-15zm270-120c-8.291 0-15 6.709-15 15v420c0 8.291 6.709 15 15 15s15-6.709 15-15v-420c0-8.291-6.709-15-15-15z" fill="url(#SVGID_2_)"/></g></g></g></svg>