<svg id="Capa_1" enable-background="new 0 0 512 512" height="512" viewBox="0 0 512 512" width="512" xmlns="http://www.w3.org/2000/svg"><g><path d="m0 201.728v39.272 39.272l90 45v-84.272-84.272z" fill="#766e6e"/><path d="m90 325.272v-84.272h-90v39.272z" fill="#5b5555"/><path d="m241 136-15 40.578v64.422 67.026l15 37.974c116.964 1.073 190.448 60.324 196 63.025v-168.025-168.025c-9.252 4.499-73.762 61.903-196 63.025z" fill="#f0f7ff"/><path d="m241 346c116.964 1.073 190.448 60.324 196 63.025v-168.025h-211v67.026z" fill="#dfe7f4"/><path d="m90 331h121v135h-121z" fill="#5b5555"/><path d="m467 196h-30v45 45h30c24.814 0 45-20.186 45-45s-20.186-45-45-45z" fill="#dfe7f4"/><path d="m467 286c24.814 0 45-20.186 45-45h-75v45z" fill="#c7cfe1"/><path d="m60 136v105 105h181v-105-105z" fill="#ff8066"/><path d="m60 241h181v105h-181z" fill="#fd435b"/><path d="m422 46v195 195h30v-195-195z" fill="#ff8066"/><path d="m422 241h30v195h-30z" fill="#fd435b"/></g></svg>